<svg width="16" height="18" viewBox="0 0 16 18" fill="none" xmlns="http://www.w3.org/2000/svg">
<circle cx="8" cy="9" r="7.5" stroke="#FD4A4A"/>
<path d="M8.46777 4.04688L8.37891 11.1904H7.2373L7.1416 4.04688H8.46777ZM7.10059 13.3643C7.10059 13.1592 7.16211 12.986 7.28516 12.8447C7.41276 12.7035 7.59961 12.6328 7.8457 12.6328C8.08724 12.6328 8.27181 12.7035 8.39941 12.8447C8.53158 12.986 8.59766 13.1592 8.59766 13.3643C8.59766 13.5602 8.53158 13.7288 8.39941 13.8701C8.27181 14.0114 8.08724 14.082 7.8457 14.082C7.59961 14.082 7.41276 14.0114 7.28516 13.8701C7.16211 13.7288 7.10059 13.5602 7.10059 13.3643Z" fill="#FD4A4A"/>
</svg>
